<svg width="430" height="430" viewBox="0 0 430 430" fill="none" xmlns="http://www.w3.org/2000/svg">
<path d="M192.05 338.1V380.74C192.051 381.305 191.892 381.859 191.592 382.338C191.292 382.816 190.863 383.201 190.354 383.446C189.845 383.692 189.277 383.789 188.716 383.726C188.154 383.663 187.622 383.442 187.18 383.09L163.36 364.18L139.55 383.23C139.109 383.585 138.577 383.807 138.015 383.872C137.452 383.937 136.883 383.842 136.373 383.597C135.863 383.353 135.432 382.969 135.131 382.49C134.829 382.011 134.67 381.456 134.67 380.89V338.1H192.05Z" fill="#f24c00"/>
<g style="mix-blend-mode:multiply" opacity="0.5">
<path d="M163.36 338.1H134.67V380.89C134.67 381.456 134.829 382.011 135.131 382.49C135.432 382.969 135.863 383.353 136.373 383.597C136.883 383.842 137.452 383.937 138.015 383.872C138.577 383.807 139.109 383.585 139.55 383.23L163.36 364.18V338.1Z" fill="#f24c00"/>
</g>
<path d="M325.76 96.28V336.9C325.76 337.961 325.339 338.978 324.588 339.728C323.838 340.479 322.821 340.9 321.76 340.9C296.27 340.9 156.76 341.09 141.08 340.9C105.6 340.48 104.23 308.47 104.23 308.47L104.69 68.78C104.69 70.35 105.23 96.07 140.17 96.27C171.56 96.45 325.76 96.28 325.76 96.28Z" fill="#4bb3fd"/>
<g style="mix-blend-mode:multiply" opacity="0.5">
<path d="M122.84 93.39C105.06 86.59 104.7 70 104.7 68.79L104.24 308.48C104.24 308.48 105.11 328.36 122.84 336.99V93.39Z" fill="#4bb3fd"/>
</g>
<path d="M140.16 96.2901C171.54 96.4701 325.76 96.2901 325.76 96.2901V40.8201C325.76 39.7592 325.339 38.7418 324.588 37.9916C323.838 37.2415 322.821 36.8201 321.76 36.8201H139.93C109.93 36.8201 104.27 60.3801 104.68 68.8201C104.68 70.3701 105.22 96.0901 140.16 96.2901Z" fill="#ebe6ef"/>
<g style="mix-blend-mode:multiply" opacity="0.5">
<path d="M139.93 36.8301C109.93 36.8301 104.27 60.3901 104.68 68.8301C104.68 70.0901 105.04 86.9401 123.32 93.6201C116.82 80.9401 105.08 50.2001 144.22 50.2001H325.76V40.8201C325.76 39.7592 325.339 38.7418 324.588 37.9916C323.838 37.2415 322.821 36.8201 321.76 36.8201L139.93 36.8301Z" fill="#ebe6ef"/>
</g>
<g style="mix-blend-mode:multiply">
<path fill-rule="evenodd" clip-rule="evenodd" d="M142.98 66C142.98 64.067 144.547 62.5 146.48 62.5H295.33C297.263 62.5 298.83 64.067 298.83 66C298.83 67.933 297.263 69.5 295.33 69.5H146.48C144.547 69.5 142.98 67.933 142.98 66Z" fill="#ebe6ef"/>
</g>
<path d="M221.9 215C243.953 215 261.83 197.123 261.83 175.07C261.83 153.017 243.953 135.14 221.9 135.14C199.847 135.14 181.97 153.017 181.97 175.07C181.97 197.123 199.847 215 221.9 215Z" fill="#f9c9c0"/>
<path fill-rule="evenodd" clip-rule="evenodd" d="M154.12 260.9C154.12 258.967 155.687 257.4 157.62 257.4H283.85C285.783 257.4 287.35 258.967 287.35 260.9C287.35 262.833 285.783 264.4 283.85 264.4H157.62C155.687 264.4 154.12 262.833 154.12 260.9Z" fill="#ebe6ef"/>
<path fill-rule="evenodd" clip-rule="evenodd" d="M154.12 283.85C154.12 281.917 155.687 280.35 157.62 280.35H283.85C285.783 280.35 287.35 281.917 287.35 283.85C287.35 285.783 285.783 287.35 283.85 287.35H157.62C155.687 287.35 154.12 285.783 154.12 283.85Z" fill="#ebe6ef"/>
</svg>
