<?xml version="1.0" encoding="utf-8"?>
<!-- Generator: Adobe Illustrator 24.0.2, SVG Export Plug-In . SVG Version: 6.00 Build 0)  -->
<svg version="1.1" id="Warstwa_1" xmlns="http://www.w3.org/2000/svg" xmlns:xlink="http://www.w3.org/1999/xlink" x="0px" y="0px"
	 viewBox="0 0 430 430" style="enable-background:new 0 0 430 430;" xml:space="preserve">
<style type="text/css">
	.st0{fill:#ebe6ef;}
	.st1{opacity:0.5;}
	.st2{fill:#121331;}
	.st3{fill:#3A3347;}
	.st4{fill:#4bb3fd;}
	.st5{fill:#F24C00;}
	.st6{fill:#FFC738;}
	.st7{fill:#2CA58D;}
	.st8{display:none;}
	.st9{display:inline;fill:none;stroke:#121331;stroke-width:7;stroke-linecap:round;stroke-linejoin:round;}
	.st10{display:none;fill:none;stroke:#121331;stroke-width:7;stroke-linecap:round;stroke-linejoin:round;stroke-miterlimit:10;}
	.st11{fill:#f9c9c0;}
	.st12{fill:#F28BA8;}
	.st13{fill:#646E78;}
	.st14{fill:#B26836;}
	.st15{opacity:0.6;}
	.st16{opacity:0.7;}
	.st17{fill:#92140c;}
	.st18{opacity:0;}
	.st19{opacity:0.4;}
	.st20{opacity:0.8;}
	.st21{fill:none;}
	.st22{opacity:0.2;clip-path:url(#SVGID_2_);}
	.st23{opacity:0.2;clip-path:url(#SVGID_4_);}
	.st24{opacity:0.2;clip-path:url(#SVGID_6_);}
	.st25{opacity:0.2;clip-path:url(#SVGID_8_);}
	.st26{opacity:0.2;clip-path:url(#SVGID_10_);}
	.st27{opacity:0.2;clip-path:url(#SVGID_12_);}
	.st28{fill:#FFFFFF;}
</style>
<g>
	<polygon class="st5" points="192.05,338.1 192.05,386.95 163.36,364.18 134.67,387.13 134.67,338.1 	"/>
</g>
<g>
	<path class="st2" d="M134.67,390.63c-0.52,0-1.03-0.11-1.52-0.35c-1.21-0.58-1.98-1.81-1.98-3.15V338.1c0-1.93,1.57-3.5,3.5-3.5
		h57.38c1.93,0,3.5,1.57,3.5,3.5v48.85c0,1.34-0.77,2.57-1.98,3.15c-1.21,0.58-2.65,0.42-3.7-0.41l-26.5-21.04l-26.51,21.21
		C136.23,390.37,135.45,390.63,134.67,390.63z M138.17,341.6v38.24l23-18.4c1.28-1.02,3.08-1.02,4.36-0.01l23.01,18.27v-38.1H138.17
		z"/>
</g>
<g class="st1">
	<polygon class="st5" points="163.36,338.1 134.67,338.1 134.67,387.13 163.36,364.18 	"/>
</g>
<g>
	<path class="st4" d="M325.76,96.28V340.9c0,0-167.39,0.21-184.67,0c-35.48-0.42-36.85-32.43-36.85-32.43l0.46-239.69
		c0,1.57,0.54,27.29,35.48,27.49C171.56,96.45,325.76,96.28,325.76,96.28z"/>
</g>
<g class="st1">
	<path class="st4" d="M122.84,93.39c-17.77-6.8-18.14-23.35-18.14-24.6l-0.46,239.69c0,0,0.86,19.88,18.6,28.51V93.39z"/>
</g>
<g>
	<path class="st0" d="M140.16,96.29c31.38,0.18,185.6-0.01,185.6-0.01c0-32.33,0-59.46,0-59.46s-176.13,0.01-185.83,0.01
		c-30.01,0-35.66,23.56-35.25,31.97C104.68,70.37,105.22,96.09,140.16,96.29z"/>
</g>
<g class="st1">
	<path class="st0" d="M139.93,36.83c-30.01,0-35.66,23.56-35.25,31.97c0,1.26,0.37,18.12,18.64,24.79
		c-6.5-12.68-18.24-43.41,20.9-43.41h181.54V36.82L139.93,36.83z"/>
</g>
<g>
	<g>
		<g>
			<path class="st0" d="M295.33,69.5H146.48c-1.93,0-3.5-1.57-3.5-3.5s1.57-3.5,3.5-3.5h148.84c1.93,0,3.5,1.57,3.5,3.5
				S297.26,69.5,295.33,69.5z"/>
		</g>
	</g>
</g>
<g>
	<circle class="st11" cx="221.9" cy="175.07" r="39.93"/>
</g>
<g>
	<path class="st2" d="M283.85,264.4H157.62c-1.93,0-3.5-1.57-3.5-3.5s1.57-3.5,3.5-3.5h126.23c1.93,0,3.5,1.57,3.5,3.5
		S285.78,264.4,283.85,264.4z"/>
</g>
<g>
	<path class="st2" d="M283.85,287.35H157.62c-1.93,0-3.5-1.57-3.5-3.5s1.57-3.5,3.5-3.5h126.23c1.93,0,3.5,1.57,3.5,3.5
		S285.78,287.35,283.85,287.35z"/>
</g>
<g>
	<path class="st2" d="M196.65,344.49c-27.4,0-49.87-0.02-55.61-0.09c-38.35-0.45-40.29-35.43-40.3-35.78c0-0.05,0-0.1,0-0.16
		l0.46-239.67c0,0,0-0.01,0-0.01v-0.01c0-1.93,1.57-3.49,3.5-3.49c0,0,0,0,0,0c1.93,0,3.5,1.57,3.5,3.5c0,2.44,0.9,23.81,32,23.99
		c31.01,0.18,184.01,0.01,185.56,0.01c0,0,0,0,0,0c0.93,0,1.82,0.37,2.47,1.02c0.66,0.66,1.03,1.55,1.03,2.48V340.9
		c0,1.93-1.56,3.5-3.5,3.5C324.65,344.4,250.97,344.49,196.65,344.49z M107.74,308.38c0.11,1.86,2.19,28.65,33.39,29.02
		c15.67,0.19,156.96,0.03,181.13,0V99.78c-23.16,0.02-153.7,0.15-182.1-0.01c-17.01-0.1-26.6-5.91-32-12.48L107.74,308.38z"/>
</g>
<g>
	<path class="st2" d="M200.25,99.86c-26.72,0-49.95-0.02-60.11-0.08c-37.82-0.22-38.93-28.68-38.96-30.9
		c-0.23-5.17,1.53-16.06,9.59-24.52c6.98-7.33,16.79-11.05,29.16-11.05l185.83-0.01c0.93,0,1.82,0.37,2.47,1.02
		c0.66,0.66,1.03,1.55,1.03,2.48v59.46c0,1.93-1.56,3.5-3.5,3.5C324.73,99.78,255.14,99.86,200.25,99.86z M322.26,40.32
		l-182.33,0.01c-10.38,0-18.48,2.99-24.09,8.87c-6.48,6.8-7.84,15.68-7.66,19.43c0,0.06,0,0.11,0,0.17c0,2.44,0.9,23.81,32,23.99
		l0,0c28.38,0.16,158.95,0.02,182.08,0V40.32z"/>
</g>
<g>
	<path class="st2" d="M221.9,218.5c-23.94,0-43.43-19.48-43.43-43.43c0-23.94,19.48-43.43,43.43-43.43s43.43,19.48,43.43,43.43
		C265.32,199.02,245.84,218.5,221.9,218.5z M221.9,138.65c-20.09,0-36.43,16.34-36.43,36.43s16.34,36.43,36.43,36.43
		s36.43-16.34,36.43-36.43S241.98,138.65,221.9,138.65z"/>
</g>
</svg>
